<svg xmlns="http://www.w3.org/2000/svg" version="1.1" xmlns:xlink="http://www.w3.org/1999/xlink" xmlns:svgjs="http://svgjs.com/svgjs" width="1440" height="760" preserveAspectRatio="none" viewBox="0 0 1440 760"><g mask="url(&quot;#SvgjsMask1702&quot;)" fill="none"><rect width="1440" height="760" x="0" y="0" fill="rgba(14, 22, 48, 1)"></rect><path d="M460.12 322.94a5.6 5.6 0 1 0 10.81 2.92 5.6 5.6 0 1 0-10.81-2.92zM475.56 327.11a5.6 5.6 0 1 0 10.81 2.92 5.6 5.6 0 1 0-10.81-2.92zM491.01 331.28a5.6 5.6 0 1 0 10.81 2.93 5.6 5.6 0 1 0-10.81-2.93zM506.45 335.46a5.6 5.6 0 1 0 10.82 2.92 5.6 5.6 0 1 0-10.82-2.92z" stroke="rgba(235, 74, 74, 1)" stroke-width="1.02" stroke-dasharray="3, 2"></path><path d="M444.40999999999997 695.02 L261.89 735.52L280.73127950797357 642.8512795079736z" stroke="rgba(235, 74, 74, 1)" stroke-width="1" stroke-dasharray="2, 2"></path><path d="M1017.53 11.57a5.6 5.6 0 1 0-9.25-6.31 5.6 5.6 0 1 0 9.25 6.31zM1004.31 2.56a5.6 5.6 0 1 0-9.25-6.31 5.6 5.6 0 1 0 9.25 6.31zM991.1-6.45a5.6 5.6 0 1 0-9.26-6.31 5.6 5.6 0 1 0 9.26 6.31zM977.88-15.47a5.6 5.6 0 1 0-9.26-6.31 5.6 5.6 0 1 0 9.26 6.31zM1052.99 16.38a5.6 5.6 0 1 0-9.26-6.31 5.6 5.6 0 1 0 9.26 6.31zM1039.77 7.37a5.6 5.6 0 1 0-9.26-6.31 5.6 5.6 0 1 0 9.26 6.31zM1026.55-1.64a5.6 5.6 0 1 0-9.26-6.31 5.6 5.6 0 1 0 9.26 6.31zM1013.33-10.66a5.6 5.6 0 1 0-9.25-6.31 5.6 5.6 0 1 0 9.25 6.31zM1088.44 21.19a5.6 5.6 0 1 0-9.25-6.31 5.6 5.6 0 1 0 9.25 6.31zM1075.22 12.18a5.6 5.6 0 1 0-9.25-6.31 5.6 5.6 0 1 0 9.25 6.31zM1062 3.16a5.6 5.6 0 1 0-9.25-6.31 5.6 5.6 0 1 0 9.25 6.31zM1048.78-5.85a5.6 5.6 0 1 0-9.25-6.31 5.6 5.6 0 1 0 9.25 6.31z" fill="rgba(235, 74, 74, 1)"></path><path d="M949.66 666.93L962.46 666.79 965.41 679.25 978.22 679.11 981.17 691.57 993.97 691.43 996.93 703.89M944.73 673.24L957.54 673.09 960.49 685.55 973.29 685.41 976.24 697.87 989.05 697.73 992 710.19" stroke="rgba(128, 141, 173, 1)" stroke-width="1.53" stroke-dasharray="2, 2"></path><path d="M1116.2 686.49L1114.9 673.75 1127.04 669.68 1125.73 656.94 1137.87 652.87 1136.57 640.13 1148.71 636.06M1122.93 690.83L1121.62 678.09 1133.76 674.02 1132.46 661.28 1144.6 657.2 1143.29 644.46 1155.43 640.39M1129.65 695.16L1128.35 682.42 1140.49 678.35 1139.18 665.61 1151.32 661.54 1150.01 648.8 1162.16 644.73" stroke="rgba(235, 74, 74, 1)" stroke-width="1.93"></path><path d="M1262.84 659.42L1257.18 647.93 1267.15 639.88 1261.48 628.4 1271.45 620.35 1265.78 608.87 1275.75 600.82M1270.66 661.14L1264.99 649.65 1274.96 641.6 1269.3 630.12 1279.26 622.07 1273.6 610.59 1283.56 602.54" stroke="rgba(235, 74, 74, 1)" stroke-width="2.28" stroke-dasharray="3, 2"></path><circle r="78.12818381621796" cx="507.91" cy="112.62" stroke="rgba(128, 141, 173, 1)" stroke-width="1" stroke-dasharray="4, 4"></circle><circle r="63.333333333333336" cx="1375.74" cy="507.91" fill="rgba(128, 141, 173, 1)"></circle><rect width="84" height="84" clip-path="url(&quot;#SvgjsClipPath1703&quot;)" x="1350.81" y="279" fill="url(#SvgjsPattern1704)" transform="rotate(281.37, 1392.81, 321)"></rect></g><defs><mask id="SvgjsMask1702"><rect width="1440" height="760" fill="#ffffff"></rect></mask><pattern x="0" y="0" width="6" height="6" patternUnits="userSpaceOnUse" id="SvgjsPattern1704"><path d="M3 1L3 5M1 3L5 3" stroke="rgba(235, 74, 74, 1)" fill="none" stroke-width="1.58"></path></pattern><clipPath id="SvgjsClipPath1703"><circle r="21" cx="1392.81" cy="321"></circle></clipPath></defs></svg>